<?xml version="1.0" encoding="utf-8"?>
<!-- Generator: Adobe Illustrator 22.0.1, SVG Export Plug-In . SVG Version: 6.00 Build 0)  -->
<svg version="1.1" id="Слой_1" xmlns="http://www.w3.org/2000/svg" xmlns:xlink="http://www.w3.org/1999/xlink" x="0px" y="0px"
	 viewBox="0 0 32 32" style="enable-background:new 0 0 32 32;" xml:space="preserve">
<style type="text/css">
	.st0{fill:#A1AAC7;}
</style>
<path class="st0" d="M23.9,4c-1,0-2.1,0.4-2.9,1.2L5.4,20.8L5.2,21l-0.1,0.3L4,26.8l-0.3,1.5L5.2,28l5.5-1.1l0.3-0.1l0.2-0.2
	L26.8,11c1.6-1.6,1.6-4.2,0-5.8C26,4.4,25,4,23.9,4z M23.9,5.9c0.5,0,1,0.2,1.5,0.7c1,1,1,2,0,3l-0.7,0.7l-3-3l0.7-0.7
	C22.9,6.1,23.4,5.9,23.9,5.9z M20.3,8.7l3,3L11.2,23.8c-0.7-1.3-1.7-2.3-3-3L20.3,8.7z M6.9,22.4c1.2,0.5,2.1,1.4,2.6,2.6l-3.3,0.7
	L6.9,22.4z"/>
</svg>
