<?xml version="1.0" encoding="utf-8"?>
<!-- Generator: Adobe Illustrator 22.0.1, SVG Export Plug-In . SVG Version: 6.00 Build 0)  -->
<svg version="1.1" id="weather-icon-cloudy" xmlns="http://www.w3.org/2000/svg" xmlns:xlink="http://www.w3.org/1999/xlink"
	 x="0px" y="0px" viewBox="0 0 64 64" style="enable-background:new 0 0 64 64;" xml:space="preserve">
<style type="text/css">
	.st0{fill:#FFFFFF;}
</style>
<path class="st0" d="M49.7,50.2H16.8c-5.6,0-10.2-4.6-10.2-10.2c0-4.4,2.9-8.3,7-9.7V30c0-5.1,4.2-9.3,9.3-9.3
	c1.3,0,2.5,0.3,3.7,0.8c2.5-3.7,6.6-6,11.2-6c7.4,0,13.4,6,13.4,13.4c0,0.8-0.1,1.6-0.2,2.4c4.7,0.6,8.3,4.6,8.3,9.4
	C59.2,45.9,54.9,50.2,49.7,50.2z M22.9,23.4c-3.6,0-6.6,3-6.6,6.6c0,0.3,0,0.7,0.1,1.1l0.2,1.3l-1.3,0.2c-3.5,0.7-6.1,3.8-6.1,7.4
	c0,4.2,3.4,7.5,7.5,7.5h32.9c3.8,0,6.8-3.1,6.8-6.8c0-3.8-3.1-6.8-6.8-6.8h-0.3l-2,0.1l0.6-1.9c0.3-1.1,0.5-2.2,0.5-3.3
	c0-5.9-4.8-10.7-10.7-10.7c-4,0-7.6,2.2-9.5,5.7l-0.7,1.3l-1.2-0.7C25.3,23.7,24.1,23.4,22.9,23.4z"/>
</svg>
