<?xml version="1.0" encoding="utf-8"?>
<!-- Generator: Adobe Illustrator 22.0.1, SVG Export Plug-In . SVG Version: 6.00 Build 0)  -->
<svg version="1.1" id="weather-icon-fog" xmlns="http://www.w3.org/2000/svg" xmlns:xlink="http://www.w3.org/1999/xlink" x="0px"
	 y="0px" viewBox="0 0 64 64" style="enable-background:new 0 0 64 64;" xml:space="preserve">
<style type="text/css">
	.st0{fill:#FFFFFF;}
</style>
<path class="st0" d="M41.7,38.5c-3.2,0-6.1-0.9-8.7-2.7c-7.2-5.1-13.2-5.3-19.6-0.9c-0.5,0.3-1.1,0.2-1.4-0.3
	c-0.3-0.5-0.2-1.1,0.3-1.4c7.1-4.9,14.1-4.6,21.9,0.9c6.2,4.4,13.3,1.9,18.2-1c0.5-0.3,1.1-0.1,1.4,0.4c0.3,0.5,0.1,1.1-0.4,1.4
	C49.4,37.3,45.4,38.5,41.7,38.5z"/>
<path class="st0" d="M41.7,46.3c-3.2,0-6.1-0.9-8.7-2.7c-7.2-5.1-13.2-5.3-19.6-0.9c-0.5,0.3-1.1,0.2-1.4-0.3
	c-0.3-0.5-0.2-1.1,0.3-1.4c7.1-4.9,14.1-4.6,21.9,0.9c6.2,4.3,13.3,1.9,18.2-1c0.5-0.3,1.1-0.1,1.4,0.4c0.3,0.5,0.1,1.1-0.4,1.4
	C49.4,45.1,45.4,46.3,41.7,46.3z M41.7,30.8c-3.2,0-6.1-0.9-8.7-2.7c-7.2-5.1-13.2-5.3-19.6-0.9c-0.5,0.3-1.1,0.2-1.4-0.3
	c-0.3-0.5-0.2-1.1,0.3-1.4c7.1-4.9,14.1-4.6,21.9,0.9c6.2,4.4,13.3,1.9,18.2-1c0.5-0.3,1.1-0.1,1.4,0.4c0.3,0.5,0.1,1.1-0.4,1.4
	C49.4,29.6,45.4,30.8,41.7,30.8z"/>
</svg>
